<?xml version="1.0" encoding="UTF-8"?>
<svg version="1.1" xmlns="http://www.w3.org/2000/svg" width="6250" height="2154">
<path d="M0 0 C5.29938247 0.00830441 10.59876409 0.01237199 15.8981514 0.01613998 C71.70010166 0.06040332 127.47027672 0.52780641 183.25087357 2.17889023 C185.9485963 2.25812589 188.64636785 2.3354155 191.3441658 2.41204453 C289.43145211 5.20038265 387.37911085 10.63622049 485.28778458 17.08348465 C487.80381695 17.24906708 490.31989686 17.41390892 492.83598709 17.57860947 C496.96065549 17.84910348 501.08495065 18.12481387 505.20915604 18.4022789 C506.33753891 18.47661652 507.46592178 18.55095413 508.62849808 18.6275444 C510.15608246 18.73223793 510.15608246 18.73223793 511.71452713 18.83904648 C512.99146942 18.92525002 512.99146942 18.92525002 514.29420853 19.01319504 C517.52713426 19.31250128 520.72506487 19.77839562 523.93571854 20.25774765 C525.2381455 53.93086951 526.53409692 87.60423608 527.82172012 121.2779274 C527.92726306 124.03672887 528.03295541 126.79552455 528.13872147 129.55431747 C528.45025162 137.68292986 528.75935554 145.81161992 529.06175613 153.94057846 C529.14319793 156.11991841 529.22564578 158.29922103 529.30919266 160.47848129 C529.75308953 172.08064382 530.02592614 183.646673 529.93571854 195.25774765 C520.28925161 194.70444107 510.71635909 193.8673222 501.12031364 192.72871208 C498.06375728 192.36647691 495.0061283 192.01366224 491.94857502 191.65995693 C490.30261186 191.46946596 488.65669456 191.27857831 487.01082134 191.08731174 C395.75254983 180.48352289 304.18726697 172.79882596 -126.40803146 154.91399765 C-127.65865875 154.902099 -128.90928604 154.89020035 -130.19781113 154.87794113 C-157.81957637 154.62024596 -185.44199794 154.4506856 -213.06428146 154.25774765 C-213.06428146 215.96774765 -213.06428146 277.67774765 -213.06428146 341.25774765 C-209.43428146 341.25774765 -205.80428146 341.25774765 -202.06428146 341.25774765 C-199.1025814 341.39980503 -196.15710441 341.56498783 -193.20121098 341.777565 C-192.37657619 341.83377132 -191.5519414 341.88997764 -190.70231768 341.94788718 C-187.96271121 342.13553883 -185.22351122 342.3285616 -182.48427963 342.52160263 C-180.49041326 342.65931549 -178.49652405 342.79669796 -176.5026142 342.93377995 C-171.04048179 343.31028081 -165.57868921 343.69152284 -160.11694252 344.07357311 C-154.2180722 344.4853755 -148.3188991 344.89279798 -142.41976547 345.30080795 C-130.8618326 346.10094393 -119.3041943 346.90526305 -107.74666337 347.71118161 C-98.33564425 348.36739597 -88.92453202 349.02225978 -79.51335335 349.67618179 C-78.15846747 349.77033009 -76.80358163 349.86447897 -75.44869583 349.95862843 C-73.40650193 350.10053734 -71.36430802 350.24244606 -69.32211393 350.3843522 C-50.33173543 351.70397582 -31.34146747 353.02518057 -12.35142612 354.34964752 C-11.63572523 354.3995639 -10.92002434 354.44948027 -10.18263555 354.50090926 C-6.55577627 354.7538684 -2.92891802 355.00684229 0.69793984 355.25982174 C1.41814076 355.3100569 2.13834169 355.36029206 2.88036688 355.4120495 C4.3367969 355.51363804 5.79322686 355.61522734 7.24965678 355.71681741 C29.84153233 357.29262641 52.43376566 358.86321154 75.02629471 360.42962265 C100.461681 362.19314644 125.89677652 363.96078788 151.33147031 365.7342732 C154.05569042 365.92421125 156.77991151 366.11413531 159.50413322 366.30405045 C160.17480223 366.35080787 160.84547124 366.39756529 161.53646356 366.44573961 C171.57983474 367.14585618 181.62342069 367.84282865 191.66712379 368.53816605 C203.13213292 369.33194881 214.59682971 370.13008142 226.06116673 370.93351504 C231.89268688 371.34208009 237.72431523 371.74884774 243.55633926 372.15016174 C315.21086628 377.08503602 315.21086628 377.08503602 345.87321854 382.07024765 C346.65382645 382.19402786 347.43443436 382.31780807 348.23869705 382.4453392 C411.71363281 392.53593031 476.42591392 410.75277287 523.93571854 456.25774765 C524.43990311 456.73470078 524.94408768 457.2116539 525.46355057 457.70306015 C557.74058335 488.35138833 573.60927631 530.13096933 580.93571854 573.25774765 C581.11505936 574.29060898 581.29440018 575.32347031 581.47917557 576.38763046 C587.19277112 611.28198265 586.55648583 650.39350014 580.93571854 685.25774765 C580.76942947 686.33508163 580.60314041 687.41241562 580.43181229 688.52239609 C576.75546896 711.67655099 570.38063377 734.22550884 559.93571854 755.25774765 C559.58396561 755.97752792 559.23221268 756.6973082 558.86980057 757.43889999 C541.36823507 792.96904442 512.64739279 819.23697214 478.93571854 839.25774765 C478.31584061 839.62706406 477.69596268 839.99638046 477.05730057 840.37688828 C404.05786048 883.16613699 308.65917009 889.5304209 188.85472393 892.52615857 C185.21843307 892.5223237 181.58216171 892.52579402 177.94587147 892.52917129 C167.25848823 892.53903568 156.57117823 892.53029036 145.88380432 892.5154953 C139.82604714 892.50720993 133.76829071 892.50313152 127.71052933 892.49935532 C70.80901595 892.45975448 13.93213092 892.22502865 -42.94544601 890.41918564 C-47.34336216 890.27960218 -51.74144727 890.14639162 -56.13961411 890.01496983 C-141.51212055 887.46277717 -226.85189913 883.46158723 -338.18928146 875.07024765 C-339.0052253 875.00658257 -339.82116913 874.94291748 -340.66183853 874.87732315 C-358.47670282 873.48500052 -376.28387646 872.04558452 -394.06428146 870.25774765 C-394.90296727 862.09964153 -395.34413715 853.96378061 -395.63679123 845.7694664 C-395.68570511 844.46523727 -395.73461899 843.16100815 -395.78501511 841.81725693 C-395.91797624 838.2667231 -396.04714553 834.71606133 -396.17532086 831.16535187 C-396.28357155 828.17496711 -396.39358287 825.18464805 -396.50353473 822.19432545 C-396.76381307 815.11335295 -397.02085902 808.03226809 -397.27595139 800.95110703 C-397.53644315 793.72182293 -397.80269613 786.49276755 -398.07183415 779.26380062 C-398.30473807 773.00176624 -398.53371254 766.73959577 -398.75978702 760.47731113 C-398.89394098 756.76254773 -399.02944759 753.04784849 -399.16886711 749.33327866 C-399.85636012 730.96699543 -400.2215176 712.63828203 -400.06428146 694.25774765 C-399.20147064 694.35051483 -398.33865982 694.44328201 -397.44970322 694.53886032 C-307.28679358 704.22535327 -217.09592463 713.50687139 151.81071854 734.88274765 C152.88476315 734.91435234 153.95880775 734.94595703 155.06539917 734.97851944 C204.33016944 736.42518813 253.58821465 737.35549872 302.87205887 737.78380966 C308.86701613 737.83598203 314.86193473 737.89100237 320.8568325 737.94962692 C323.5448922 737.97491555 326.23296052 737.99642383 328.92105484 738.01763535 C346.2741385 738.1865025 363.5767095 738.76177596 380.93571854 739.25774765 C380.60571854 676.22774765 380.27571854 613.19774765 379.93571854 548.25774765 C363.89768631 547.15785507 347.85965408 546.05796249 331.33562088 544.92473984 C320.61998535 544.18965419 309.90435183 543.45453996 299.18873978 542.7191124 C298.50772977 542.67237408 297.82671976 542.62563576 297.12507309 542.57748113 C274.16426234 541.00163553 251.20358277 539.42388686 228.24300003 537.84472275 C227.49262688 537.79311469 226.74225372 537.74150663 225.96914199 537.68833468 C209.65490806 536.566288 193.34069527 535.44393426 177.02650418 534.32126497 C169.02407825 533.77057586 161.02164767 533.21995449 153.01921463 532.66936874 C152.22294779 532.6145826 151.42668095 532.55979646 150.60628481 532.50335013 C124.87518368 530.73298573 99.14377899 528.96707946 73.41221018 527.20352664 C46.93244624 525.38867115 20.4530008 523.56923502 -6.02606165 521.7441719 C-9.78050154 521.48540012 -13.53494497 521.22667981 -17.28939056 520.96799088 C-18.02819715 520.917084 -18.76700373 520.86617712 -19.52819839 520.81372762 C-31.3404763 519.99994426 -43.15307271 519.19087936 -54.9658004 518.38365407 C-66.89029909 517.56868696 -78.81443528 516.7485704 -90.73823722 515.92347088 C-97.1790043 515.47792148 -103.61991008 515.03462401 -110.06125259 514.59745979 C-132.48261926 513.07437442 -154.89259742 511.54364357 -177.24503708 509.19286728 C-177.98565371 509.11560912 -178.72627033 509.03835096 -179.48932989 508.95875165 C-221.71534767 504.49855127 -264.73966814 496.12499385 -303.06428146 477.25774765 C-303.89621017 476.85330429 -304.72813889 476.44886093 -305.58527756 476.03216171 C-323.91378526 467.04541139 -340.01060615 456.02835916 -355.06428146 442.25774765 C-356.00658615 441.39923203 -356.94889084 440.5407164 -357.91975021 439.65618515 C-370.10015294 428.02064893 -380.12173463 414.08237236 -388.06428146 399.25774765 C-388.61245529 398.23535995 -388.61245529 398.23535995 -389.17170334 397.19231796 C-400.14003434 376.31066874 -406.98284884 353.42747069 -411.06428146 330.25774765 C-411.21590744 329.40035995 -411.36753342 328.54297226 -411.52375412 327.65960312 C-423.18831745 258.96828572 -418.33486111 175.32506352 -378.27521896 116.32024765 C-371.68311371 107.18913366 -364.83437308 98.43484407 -357.06428146 90.25774765 C-356.59151779 89.75775253 -356.11875412 89.25775742 -355.63166428 88.74261093 C-298.48112803 28.68890048 -209.16357935 11.74088126 -130.00178146 4.00774765 C-129.23174789 3.93061539 -128.46171432 3.85348312 -127.66834641 3.77401352 C-121.47389915 3.16413936 -115.27285271 2.69792965 -109.06428146 2.25774765 C-107.90492081 2.17021225 -106.74556015 2.08267685 -105.55106735 1.99248886 C-70.4341925 -0.56223882 -35.18630642 -0.05607363 0 0 Z " fill="#FFFFFF" transform="translate(5199.064281463623,687.7422523498535)"/>
<path d="M0 0 C1.85111247 1.56611715 3.70552347 3.12834046 5.5625 4.6875 C6.06160889 5.10813721 6.56071777 5.52877441 7.07495117 5.9621582 C11.84070317 9.94362562 16.80582818 13.63239999 21.79516602 17.3269043 C26.63549556 20.92952923 31.34039976 24.66718597 36 28.5 C41.90571571 33.35512073 47.93197603 37.99960083 54.07250977 42.55297852 C59.24015603 46.39697983 64.27535451 50.38363617 69.28540039 54.42993164 C73.96506647 58.19899969 78.71545817 61.86524017 83.5 65.5 C89.61046268 70.14359167 95.63744428 74.87602857 101.61499023 79.68920898 C106.08683222 83.28489612 110.61072037 86.80457035 115.16821289 90.29077148 C119.03139362 93.24794085 122.866113 96.23904531 126.6875 99.25 C132.02740232 103.45596938 137.38320684 107.6408937 142.75 111.8125 C143.50466553 112.399104 144.25933105 112.98570801 145.03686523 113.59008789 C147.3577045 115.39365681 149.67880247 117.1968922 152 119 C160.90980692 125.92114399 169.81651766 132.84540633 178.68164062 139.82373047 C186.4277795 145.91662199 194.21708011 151.95422261 202 158 C210.90690964 164.91889338 219.81144887 171.84001265 228.67285156 178.81713867 C233.43435444 182.56310013 238.21564129 186.28329181 243 190 C248.34487747 194.15214475 253.68232498 198.31306819 259 202.5 C267.30442076 209.03713772 275.65364676 215.51654721 284 222 C292.90980692 228.92114399 301.81651766 235.84540633 310.68164062 242.82373047 C318.4277795 248.91662199 326.21708011 254.95422261 334 261 C342.90980692 267.92114399 351.81651766 274.84540633 360.68164062 281.82373047 C368.4277795 287.91662199 376.21708011 293.95422261 384 300 C392.90980692 306.92114399 401.81651766 313.84540633 410.68164062 320.82373047 C418.4277795 326.91662199 426.21708011 332.95422261 434 339 C442.90690964 345.91889338 451.81144887 352.84001265 460.67285156 359.81713867 C465.43435444 363.56310013 470.21564129 367.28329181 475 371 C480.34487747 375.15214475 485.68232498 379.31306819 491 383.5 C499.30442076 390.03713772 507.65364676 396.51654721 516 403 C524.90980692 409.92114399 533.81651766 416.84540633 542.68164062 423.82373047 C550.4277795 429.91662199 558.21708011 435.95422261 566 442 C574.90980692 448.92114399 583.81651766 455.84540633 592.68164062 462.82373047 C600.4277795 468.91662199 608.21708011 474.95422261 616 481 C624.90980692 487.92114399 633.81651766 494.84540633 642.68164062 501.82373047 C650.4277795 507.91662199 658.21708011 513.95422261 666 520 C674.90690964 526.91889338 683.81144887 533.84001265 692.67285156 540.81713867 C697.43435444 544.56310013 702.21564129 548.28329181 707 552 C712.34487747 556.15214475 717.68232498 560.31306819 723 564.5 C731.30442076 571.03713772 739.65364676 577.51654721 748 584 C756.90980692 590.92114399 765.81651766 597.84540633 774.68164062 604.82373047 C782.4277795 610.91662199 790.21708011 616.95422261 798 623 C800.32141745 624.80327863 802.64273593 626.60668339 804.96362305 628.41064453 C806.48025518 629.58929362 807.99734064 630.76735964 809.51489258 631.94482422 C812.97864279 634.63534459 816.43198142 637.33649774 819.85546875 640.078125 C825.02484831 644.20905337 830.13760919 648.19019767 835.8125 651.625 C846.332159 658.14749844 853.22850636 666.69659676 856.57121396 678.67823851 C857.55841987 684.02369396 857.28085278 689.51644906 857.26742554 694.93449402 C857.27116458 696.36329126 857.27576711 697.79208645 857.28115618 699.22087842 C857.29337043 703.13826529 857.29312757 707.05556666 857.29076743 710.97296822 C857.29035886 715.20148474 857.30140232 719.429974 857.31088257 723.65847778 C857.32748535 731.94005096 857.33299181 740.22159567 857.33410732 748.5031841 C857.33505823 755.23680512 857.33917064 761.97041676 857.34550858 768.70403481 C857.36311972 787.80401693 857.37234775 806.90397659 857.37084763 826.00396689 C857.37072776 827.54803233 857.37072776 827.54803233 857.37060547 829.12329102 C857.37048283 830.66924665 857.37048283 830.66924665 857.37035771 832.24643371 C857.36954505 848.94419179 857.38867804 865.64185961 857.4168822 882.33959159 C857.44562766 899.49346581 857.45942155 916.64729605 857.45769465 933.80119497 C857.45703128 943.42823906 857.46250026 953.05518855 857.48405075 962.68221092 C857.50228451 970.88001373 857.50659194 979.07767907 857.4930319 987.27549341 C857.48651306 991.45524991 857.4863456 995.63474286 857.5037384 999.81447411 C857.51952268 1003.64720943 857.51655147 1007.4794734 857.49917014 1011.3121976 C857.49467259 1013.34200866 857.50971548 1015.37183465 857.52564943 1017.40158814 C857.43731378 1029.1985792 854.97018565 1039.10349737 847 1048 C846.49855469 1048.60457031 845.99710938 1049.20914062 845.48046875 1049.83203125 C837.70747068 1058.51282471 826.62965728 1062.42529381 815.21810913 1063.18526459 C812.17693197 1063.258038 809.1416353 1063.27039572 806.09960938 1063.25878906 C804.95353714 1063.2622937 803.8074649 1063.26579834 802.62666321 1063.26940918 C798.86562919 1063.27815939 795.10478569 1063.27240101 791.34375 1063.265625 C788.71398889 1063.26697357 786.08422803 1063.26891571 783.45446777 1063.27142334 C777.95383671 1063.27504963 772.45325957 1063.27029916 766.95263672 1063.26074219 C760.61669579 1063.2498602 754.28088363 1063.25338673 747.94494581 1063.264395 C741.8196287 1063.27460647 735.69436813 1063.27347238 729.56904602 1063.26763153 C726.97601808 1063.26630179 724.38298684 1063.26791896 721.78996277 1063.27259064 C718.1600181 1063.27769599 714.53031724 1063.26988922 710.90039062 1063.25878906 C709.83931595 1063.26283752 708.77824127 1063.26688599 707.68501282 1063.27105713 C693.69179555 1063.192186 681.15565984 1059.75704309 670.74609375 1049.91015625 C665.35647179 1044.01412686 661.9606464 1037.72974263 660 1030 C659.82650937 1029.33604815 659.65301874 1028.67209631 659.47427082 1027.98802471 C658.78927195 1023.67236064 658.86060429 1019.41410501 658.86869812 1015.05097961 C658.86658241 1014.04104216 658.86446669 1013.03110471 658.86228687 1011.99056309 C658.85628945 1008.60217768 658.85728684 1005.21382954 658.8581543 1001.82543945 C658.85512262 999.3976078 658.85160114 996.96977671 658.84762573 994.54194641 C658.83973681 989.31076883 658.83457141 984.07959563 658.83133507 978.84841347 C658.82583038 970.57422975 658.80892428 962.30008707 658.78999329 954.02592468 C658.78363678 951.19307811 658.77732829 948.36023143 658.77101612 945.52738476 C658.76943236 944.8194378 658.7678486 944.11149085 658.76621684 943.38209096 C658.74828638 935.32642622 658.73205745 927.27075858 658.71704102 919.21508789 C658.71566514 918.47886604 658.71428927 917.74264419 658.71287171 916.98411258 C658.69095381 905.06044679 658.68018805 893.13679161 658.67267027 881.21310923 C658.66458975 868.96126069 658.64126922 856.70950288 658.6047166 844.45770615 C658.58273176 836.90666126 658.57301459 829.35580314 658.57921693 821.80472787 C658.58277668 816.01211943 658.56547848 810.21971684 658.54053879 804.42716789 C658.53362767 802.05607722 658.53349955 799.68495535 658.54073906 797.31386566 C658.54964076 794.07019924 658.53391104 790.82752471 658.51225281 787.5839386 C658.52069534 786.65152243 658.52913788 785.71910627 658.53783625 784.75843507 C658.41481387 774.75492381 654.71921721 766.37556785 648 759 C645.59273021 756.71691213 643.05719402 754.65839975 640.4375 752.625 C639.73351074 752.06611084 639.02952148 751.50722168 638.30419922 750.93139648 C636.2117129 749.27581071 634.10842461 747.63521976 632 746 C631.4332959 745.55897949 630.8665918 745.11795898 630.28271484 744.66357422 C627.13785712 742.22080623 623.97468001 739.80249648 620.80908203 737.38671875 C617.21286142 734.6301016 613.63860911 731.8451248 610.0625 729.0625 C609.2905127 728.46187744 608.51852539 727.86125488 607.72314453 727.24243164 C602.57701723 723.23536165 597.44450973 719.21136913 592.31958008 715.17724609 C584.57306786 709.08398666 576.78333117 703.04609686 569 697 C560.09019308 690.07885601 551.18348234 683.15459367 542.31835938 676.17626953 C534.5722205 670.08337801 526.78291989 664.04577739 519 658 C510.09309036 651.08110662 501.18855113 644.15998735 492.32714844 637.18286133 C487.56564556 633.43689987 482.78435871 629.71670819 478 626 C472.65512253 621.84785525 467.31767502 617.68693181 462 613.5 C453.69557924 606.96286228 445.34635324 600.48345279 437 594 C428.09019308 587.07885601 419.18348234 580.15459367 410.31835938 573.17626953 C402.5722205 567.08337801 394.78291989 561.04577739 387 555 C378.09019308 548.07885601 369.18348234 541.15459367 360.31835938 534.17626953 C352.5722205 528.08337801 344.78291989 522.04577739 337 516 C328.09019308 509.07885601 319.18348234 502.15459367 310.31835938 495.17626953 C302.5722205 489.08337801 294.78291989 483.04577739 287 477 C278.09309036 470.08110662 269.18855113 463.15998735 260.32714844 456.18286133 C255.56564556 452.43689987 250.78435871 448.71670819 246 445 C240.65512253 440.84785525 235.31767502 436.68693181 230 432.5 C221.69557924 425.96286228 213.34635324 419.48345279 205 413 C196.09019308 406.07885601 187.18348234 399.15459367 178.31835938 392.17626953 C170.5722205 386.08337801 162.78291989 380.04577739 155 374 C146.09019308 367.07885601 137.18348234 360.15459367 128.31835938 353.17626953 C120.5722205 347.08337801 112.78291989 341.04577739 105 335 C96.09019308 328.07885601 87.18348234 321.15459367 78.31835938 314.17626953 C70.5722205 308.08337801 62.78291989 302.04577739 55 296 C37.73943152 282.59197884 37.73943152 282.59197884 30 276.5 C22.46085871 270.56754299 14.89542972 264.66940946 7.31103516 258.79492188 C4.98705996 256.9899498 2.67105092 255.17509632 0.35546875 253.359375 C-1.1377699 252.19759407 -2.6312504 251.0361239 -4.125 249.875 C-4.79893799 249.34277832 -5.47287598 248.81055664 -6.16723633 248.26220703 C-16.05172965 240.61832982 -24.45005993 238.04340616 -37 239 C-45.94889312 240.71099882 -52.46310317 245.98713187 -59.31738281 251.62353516 C-62.07224537 253.87715023 -64.88345589 256.05814877 -67.6875 258.25 C-68.86351402 259.17548555 -70.03928871 260.10127528 -71.21484375 261.02734375 C-75.38154852 264.30409413 -79.5648377 267.55937492 -83.75 270.8125 C-84.50466553 271.399104 -85.25933105 271.98570801 -86.03686523 272.59008789 C-89.13492824 274.99765236 -92.23349 277.40457452 -95.33203125 279.81152344 C-102.900731 285.69157631 -110.46892321 291.57179176 -118 297.5 C-127.07793711 304.64584422 -136.20835606 311.72424644 -145.33203125 318.81152344 C-153.461255 325.12704223 -161.58481513 331.44893135 -169.67285156 337.81713867 C-175.20668407 342.17070599 -180.76773655 346.48903024 -186.328125 350.80859375 C-190.89614024 354.35890492 -195.4544354 357.9209981 -200 361.5 C-209.07784108 368.64596467 -218.20835724 375.72424735 -227.33203125 382.81152344 C-234.900731 388.69157631 -242.46892321 394.57179176 -250 400.5 C-259.07793711 407.64584422 -268.20835606 414.72424644 -277.33203125 421.81152344 C-284.900731 427.69157631 -292.46892321 433.57179176 -300 439.5 C-309.07793711 446.64584422 -318.20835606 453.72424644 -327.33203125 460.81152344 C-334.900731 466.69157631 -342.46892321 472.57179176 -350 478.5 C-359.07793711 485.64584422 -368.20835606 492.72424644 -377.33203125 499.81152344 C-385.461255 506.12704223 -393.58481513 512.44893135 -401.67285156 518.81713867 C-407.20668407 523.17070599 -412.76773655 527.48903024 -418.328125 531.80859375 C-422.89614024 535.35890492 -427.4544354 538.9209981 -432 542.5 C-441.07784108 549.64596467 -450.20835724 556.72424735 -459.33203125 563.81152344 C-466.900731 569.69157631 -474.46892321 575.57179176 -482 581.5 C-491.07793711 588.64584422 -500.20835606 595.72424644 -509.33203125 602.81152344 C-516.900731 608.69157631 -524.46892321 614.57179176 -532 620.5 C-541.07793711 627.64584422 -550.20835606 634.72424644 -559.33203125 641.81152344 C-566.900731 647.69157631 -574.46892321 653.57179176 -582 659.5 C-591.07793711 666.64584422 -600.20835606 673.72424644 -609.33203125 680.81152344 C-617.461255 687.12704223 -625.58481513 693.44893135 -633.67285156 699.81713867 C-639.20263625 704.16752149 -644.75796382 708.48486857 -650.31713867 712.79760742 C-653.82541344 715.52135814 -657.32707379 718.25177969 -660.80078125 721.01953125 C-680.81408023 736.9654433 -697.51392337 745.34306409 -723.74194336 745.25878906 C-725.18073197 745.26150628 -726.61951919 745.26507128 -728.05830383 745.26940918 C-731.93027879 745.27844948 -735.80214597 745.2750236 -739.67412257 745.26865101 C-743.74926822 745.26354635 -747.82440534 745.26829485 -751.89955139 745.27142334 C-758.74091223 745.27505049 -765.58222974 745.27029731 -772.42358398 745.26074219 C-780.30228748 745.24986442 -788.18088739 745.25338336 -796.05958837 745.264395 C-802.85573993 745.2735089 -809.65186053 745.27473306 -816.44801623 745.26951766 C-820.49312666 745.26641985 -824.53818862 745.26592762 -828.58329582 745.27259064 C-832.38948153 745.27842339 -836.19553542 745.27426037 -840.00170708 745.26280212 C-842.04232483 745.25895196 -844.08295391 745.26479055 -846.12356567 745.27105713 C-868.99182811 745.16753608 -888.32679392 739.11510713 -905 723 C-914.23545131 712.43874165 -918.41942584 701.50249383 -918.27734375 687.546875 C-917.16443345 673.31416302 -910.4739309 663.65687704 -900.03125 654.51953125 C-895.42003922 650.6867594 -890.67530371 647.04489351 -885.88964844 643.43505859 C-882.25624597 640.67573822 -878.66173011 637.86615068 -875.0625 635.0625 C-874.29091553 634.46211914 -873.51933105 633.86173828 -872.72436523 633.24316406 C-867.57763072 629.23610628 -862.44487977 625.21166041 -857.31958008 621.17724609 C-848.79942345 614.47545266 -840.22861873 607.8383952 -831.66796875 601.18847656 C-824.099269 595.30842369 -816.53107679 589.42820824 -809 583.5 C-799.92206289 576.35415578 -790.79164394 569.27575356 -781.66796875 562.18847656 C-774.099269 556.30842369 -766.53107679 550.42820824 -759 544.5 C-749.92206289 537.35415578 -740.79164394 530.27575356 -731.66796875 523.18847656 C-724.099269 517.30842369 -716.53107679 511.42820824 -709 505.5 C-699.92206289 498.35415578 -690.79164394 491.27575356 -681.66796875 484.18847656 C-673.538745 477.87295777 -665.41518487 471.55106865 -657.32714844 465.18286133 C-651.79331593 460.82929401 -646.23226345 456.51096976 -640.671875 452.19140625 C-636.10385976 448.64109508 -631.5455646 445.0790019 -627 441.5 C-617.92215892 434.35403533 -608.79164276 427.27575265 -599.66796875 420.18847656 C-592.099269 414.30842369 -584.53107679 408.42820824 -577 402.5 C-567.92206289 395.35415578 -558.79164394 388.27575356 -549.66796875 381.18847656 C-542.099269 375.30842369 -534.53107679 369.42820824 -527 363.5 C-517.92206289 356.35415578 -508.79164394 349.27575356 -499.66796875 342.18847656 C-492.099269 336.30842369 -484.53107679 330.42820824 -477 324.5 C-467.92206289 317.35415578 -458.79164394 310.27575356 -449.66796875 303.18847656 C-441.538745 296.87295777 -433.41518487 290.55106865 -425.32714844 284.18286133 C-419.79331593 279.82929401 -414.23226345 275.51096976 -408.671875 271.19140625 C-404.10385976 267.64109508 -399.5455646 264.0790019 -395 260.5 C-385.92215892 253.35403533 -376.79164276 246.27575265 -367.66796875 239.18847656 C-360.099269 233.30842369 -352.53107679 227.42820824 -345 221.5 C-335.92206289 214.35415578 -326.79164394 207.27575356 -317.66796875 200.18847656 C-310.099269 194.30842369 -302.53107679 188.42820824 -295 182.5 C-285.92206289 175.35415578 -276.79164394 168.27575356 -267.66796875 161.18847656 C-260.099269 155.30842369 -252.53107679 149.42820824 -245 143.5 C-235.92206289 136.35415578 -226.79164394 129.27575356 -217.66796875 122.18847656 C-209.538745 115.87295777 -201.41518487 109.55106865 -193.32714844 103.18286133 C-187.79331593 98.82929401 -182.23226345 94.51096976 -176.671875 90.19140625 C-172.10385976 86.64109508 -167.5455646 83.0790019 -163 79.5 C-153.92215892 72.35403533 -144.79164276 65.27575265 -135.66796875 58.18847656 C-128.099269 52.30842369 -120.53107679 46.42820824 -113 40.5 C-107.76368318 36.37814899 -102.51107899 32.27769732 -97.25 28.1875 C-96.49710693 27.60202393 -95.74421387 27.01654785 -94.96850586 26.41333008 C-91.06127677 23.37603271 -87.15139389 20.34221362 -83.23828125 17.3125 C-81.67949236 16.10441841 -80.12089579 14.89608863 -78.5625 13.6875 C-77.80880127 13.10315186 -77.05510254 12.51880371 -76.27856445 11.91674805 C-72.10901323 8.67376376 -67.99906815 5.37709775 -63.9375 2 C-44.29886667 -14.13066371 -20.27618689 -17.54799563 0 0 Z " fill="#FFFFFF" transform="translate(1385,172)"/>
<path d="M0 0 C1.04672085 -0.00266251 1.04672085 -0.00266251 2.11458757 -0.00537882 C4.46301881 -0.0101261 6.81138882 -0.00774404 9.15982294 -0.00541991 C10.86373399 -0.0073727 12.56764458 -0.00976149 14.27155447 -0.01254788 C18.97930847 -0.01896015 23.68704544 -0.01910853 28.39480298 -0.01827047 C33.50697089 -0.01843973 38.61913264 -0.02434314 43.73129749 -0.02951133 C53.88215286 -0.03884796 64.03300387 -0.04276117 74.18386299 -0.0450303 C86.33787746 -0.04798959 98.49188613 -0.05668537 110.64589756 -0.06544458 C140.02481639 -0.08630075 169.40373556 -0.09676387 198.78265976 -0.10557419 C208.51157426 -0.10850803 218.24048854 -0.11187791 227.96940279 -0.1155414 C228.99888485 -0.11592884 228.99888485 -0.11592884 230.04916452 -0.1163241 C232.8257759 -0.11737032 235.60238727 -0.11841875 238.37899864 -0.11946992 C285.87440325 -0.13743489 333.36980821 -0.15281395 380.86521573 -0.16022895 C384.59605815 -0.16081292 388.32690057 -0.16141019 392.05774298 -0.16200657 C393.16786483 -0.16218375 393.16786483 -0.16218375 394.30041337 -0.16236451 C401.79848548 -0.1635619 409.29655758 -0.16477066 416.79462968 -0.16599704 C418.29801594 -0.16624227 419.8014022 -0.16648613 421.30478846 -0.16672861 C469.5865657 -0.17451809 517.86831863 -0.19690081 566.15008525 -0.22940504 C600.84061147 -0.2527515 635.53113287 -0.27430281 670.22166681 -0.28141135 C670.93513704 -0.28155837 671.64860728 -0.28170539 672.38369782 -0.28185687 C688.04645561 -0.28504174 703.70921335 -0.2870926 719.37197142 -0.28808442 C725.6741165 -0.28849915 731.97626156 -0.28905405 738.27840662 -0.28964633 C739.31299915 -0.28973733 739.31299915 -0.28973733 740.36849253 -0.28983017 C762.58341472 -0.29184592 784.7983082 -0.30608258 807.01322037 -0.32659133 C830.01357401 -0.34774989 853.01389591 -0.3545267 876.01426071 -0.34471754 C889.27565249 -0.33949435 902.53693034 -0.34541874 915.79830577 -0.36725221 C924.65438968 -0.38073282 933.51039492 -0.37970754 942.36647956 -0.36685025 C947.41398495 -0.35993546 952.4612721 -0.35934613 957.50875825 -0.37641034 C962.10398295 -0.39181907 966.69881406 -0.38868789 971.29402715 -0.37100006 C972.942847 -0.36785973 974.591697 -0.37136923 976.24048233 -0.38249181 C991.67499434 -0.4797987 1005.7991152 2.20037927 1017.27991724 13.34755117 C1025.92587587 23.30252409 1028.75717651 34.43061923 1028.62586451 47.36366445 C1028.63301981 48.61585775 1028.64017511 49.86805104 1028.64754725 51.15818959 C1028.66143352 54.5511739 1028.65325948 57.94260305 1028.63345695 61.33545715 C1028.61690225 64.90971664 1028.62590611 68.48393212 1028.6309762 72.05821401 C1028.63547744 78.05468988 1028.61974778 84.05085181 1028.59168482 90.0472582 C1028.55961231 96.95311408 1028.55966633 103.85840512 1028.57689959 110.76430124 C1028.59282915 117.44550243 1028.58599193 124.12649902 1028.56896257 130.8076914 C1028.56213887 133.63440024 1028.56307568 136.46094275 1028.57050753 139.28764898 C1028.5796766 143.24288964 1028.55549768 147.19756251 1028.52820826 151.15272695 C1028.53473413 152.30835134 1028.54126001 153.46397573 1028.54798365 154.65461904 C1028.40455542 166.94290454 1024.36321764 177.25037045 1015.99476099 186.28895742 C1008.29252359 193.64734494 999.04670443 198.25147432 988.33085537 198.25595969 C987.1667398 198.25887172 986.00262423 198.26178376 984.80323243 198.26478404 C983.52085954 198.26290383 982.23848665 198.26102362 980.91725397 198.25908643 C979.53823711 198.26062343 978.15922068 198.26259937 976.78020501 198.26497561 C972.96987428 198.27026647 969.15956618 198.26931247 965.34923319 198.26740248 C961.21164318 198.26643123 957.07405944 198.27125767 952.93647194 198.27538151 C945.67768203 198.28182571 938.41889788 198.2845987 931.16010523 198.2850073 C920.36582985 198.28565112 909.57156332 198.29203754 898.77729095 198.2997541 C881.73302852 198.31184191 864.6887665 198.32049762 847.64450102 198.32679224 C820.58575145 198.33681831 793.52701452 198.35606821 766.46827253 198.37833463 C756.06165364 198.38686576 745.65503454 198.39513179 735.24841547 198.40343839 C734.09215213 198.4043634 732.93588879 198.40528841 731.74458717 198.40624145 C704.20883911 198.42824139 676.67308963 198.44802776 649.13733912 198.46669179 C647.93220687 198.46751147 646.72707463 198.46833115 645.48542323 198.46917567 C617.37151233 198.48825834 589.2576015 198.50521997 561.14368677 198.51753408 C559.93481313 198.51806374 558.72593949 198.51859341 557.48043331 198.51913913 C547.73657751 198.52339067 537.99272167 198.52756701 528.24886582 198.53172393 C488.0841011 198.54891789 447.91935363 198.57612474 407.75460372 198.61488431 C402.0832677 198.62034625 396.41193156 198.62567922 390.74059534 198.63092595 C389.62440483 198.63196033 388.50821432 198.63299472 387.35819985 198.63406044 C369.38525374 198.6503925 351.41231969 198.65591458 333.43936687 198.65722361 C315.37740663 198.65872737 297.31547919 198.67087343 279.25353342 198.69398002 C268.52034951 198.70737022 257.78723721 198.71237269 247.0540468 198.70543366 C239.88442097 198.70161479 232.71485862 198.70863399 225.54524936 198.72444944 C221.46016553 198.73314784 217.37522855 198.73713388 213.2901426 198.72787558 C209.56936114 198.71953361 205.84886264 198.72510221 202.12811026 198.74148317 C200.1686656 198.74659949 198.20919913 198.73712311 196.24977422 198.72694713 C183.47558526 198.81237571 172.8553026 200.95407862 163.24866724 209.72255117 C156.01520399 217.37090134 154.39585017 226.38146655 154.47718287 236.57020742 C154.47017359 237.6675118 154.46316431 238.76481618 154.45594263 239.89537221 C154.43845037 243.49427863 154.44995489 247.09238785 154.46351099 250.69130117 C154.46081358 253.20896219 154.45692908 255.7266222 154.45191431 258.24427968 C154.44603112 263.50957931 154.45415817 268.7746747 154.47327662 274.03993398 C154.49504078 280.10335683 154.48798757 286.16624144 154.46597099 292.22965127 C154.44554211 298.09338444 154.44781828 303.95691517 154.45949793 309.82066518 C154.46215648 312.30205024 154.45892634 314.78344914 154.44957972 317.26481801 C154.43936259 320.73937457 154.45498884 324.21291367 154.47718287 327.68739492 C154.46908594 328.7017159 154.46098902 329.71603688 154.45264673 330.76109487 C154.56257174 340.10246308 157.39472577 349.25937675 163.99476099 356.12880117 C175.41585157 365.73702023 189.19116648 365.95248855 203.41483545 367.08786184 C205.51640674 367.26359393 207.617899 367.44027328 209.71931827 367.61781406 C215.49134045 368.10271421 221.26439278 368.57418517 227.03770208 369.04347652 C233.28186568 369.55342091 239.52498642 370.07584714 245.76824427 370.59674245 C256.64364974 371.50239164 267.51967728 372.40017682 278.39617777 373.29256803 C289.97134886 374.24232672 301.54611641 375.19680219 313.1204133 376.15715772 C313.84806275 376.21753071 314.57571219 376.2779037 315.32541162 376.34010617 C319.02782634 376.64731933 322.73023431 376.95461394 326.43263964 377.26194026 C352.79248403 379.4498557 379.15314041 381.62784254 405.51429224 383.79994375 C430.46355295 385.85573717 455.41251426 387.91509039 480.36097193 389.98060781 C481.11219524 390.04280205 481.86341855 390.1049963 482.6374062 390.16907522 C490.2110204 390.79611133 497.7846259 391.42325237 505.35822603 392.05045838 C515.21404191 392.8666612 525.06988543 393.68252978 534.92574167 394.49824506 C535.67780006 394.56048935 536.42985845 394.62273364 537.20470649 394.68686412 C541.00313082 395.00124123 544.80155546 395.31561459 548.59998026 395.62998588 C556.19217548 396.25834515 563.78436809 396.88673593 571.37655878 397.51514989 C572.50383234 397.60845527 572.50383234 397.60845527 573.65387911 397.70364561 C584.28313035 398.58344645 594.9123622 399.46348114 605.54158116 400.34367187 C623.0328128 401.79209543 640.52408896 403.23998018 658.01541132 404.68730775 C661.05426548 404.93876186 664.09311716 405.1902459 667.13196665 405.44175646 C705.29533857 408.60032145 743.45986969 411.7442106 781.62641632 414.86419151 C798.22024577 416.22069345 814.81395492 417.57860343 831.40708208 418.94367296 C832.17048315 419.00647372 832.93388423 419.06927449 833.72041866 419.13397831 C841.33449156 419.76039845 848.94852852 420.38725365 856.5625174 421.01469412 C860.30102392 421.3227513 864.03954166 421.63067198 867.77806711 421.93849927 C868.5125784 421.9989792 869.24708969 422.05945913 870.00385889 422.12177178 C881.69352532 423.08398458 893.38399834 424.03602149 905.07484144 424.98381937 C916.67482708 425.92442656 928.27390694 426.87552585 939.872197 427.83682798 C946.12254466 428.35452932 952.37318854 428.86745149 958.62497139 429.36754948 C964.34230148 429.82496832 970.05836263 430.29581522 975.77371912 430.77724936 C977.83384387 430.94840708 979.89438201 431.11467765 981.95534332 431.27544907 C996.475354 432.41184406 1010.25039684 433.59948409 1021.99476099 443.12880117 C1022.93255396 443.88096914 1022.93255396 443.88096914 1023.88929224 444.64833242 C1030.95798376 450.97781436 1035.78861792 460.71801544 1036.99476099 470.12880117 C1037.6646855 482.68869422 1036.16175357 495.3183012 1035.13147974 507.82020742 C1034.93671173 510.21667268 1034.74211945 512.61315223 1034.54769373 515.00964528 C1034.14031533 520.01346409 1033.72865567 525.01690956 1033.31434107 530.02015859 C1032.78615956 536.40637171 1032.27202593 542.79363012 1031.761518 549.1812771 C1031.36431627 554.12431049 1030.95794188 559.06655905 1030.54903078 564.0086363 C1030.35568168 566.36250444 1030.16551885 568.71663672 1029.97871447 571.0710333 C1026.98410939 608.66321283 1026.98410939 608.66321283 1013.96351099 620.57020742 C995.22161836 635.40753908 973.34435643 630.99498176 951.13195276 629.09271413 C948.48771409 628.87063225 945.84343973 628.64902242 943.19911295 628.42799675 C937.45718201 627.9471372 931.71562227 627.46203355 925.97428751 626.97410947 C917.42244519 626.24738571 908.87003679 625.52750008 900.31748708 624.80915492 C886.74573084 623.66913659 873.17430926 622.52519112 859.6031041 621.37863265 C837.74184661 619.53177284 815.87959923 617.69684223 794.01703104 615.86557021 C786.47430164 615.23373824 778.93159334 614.60165434 771.38888119 613.96961639 C769.48184456 613.80981785 767.57480767 613.65002235 765.66777053 613.49022989 C743.13296168 611.60199891 720.5983433 609.71150118 698.06385279 607.819475 C697.07857137 607.73675338 696.09328995 607.65403177 695.07815151 607.56880345 C666.70026572 605.18619952 638.32305048 602.79574277 609.94632919 600.39931197 C563.44715459 596.47252768 516.94647079 592.56406912 470.4429865 588.68863139 C467.61519333 588.4529648 464.78740608 588.21722724 461.95961899 587.98148775 C373.03221139 580.56930553 284.09405757 573.41550026 131.40491724 562.83583242 C130.65710868 562.78525837 129.90930013 562.73468432 129.1388307 562.68257773 C107.46057241 561.21660916 85.7812215 559.7677059 64.10047388 558.33900625 C62.86608714 558.25759256 61.63170041 558.17617888 60.35990801 558.09229812 C53.37100607 557.63175074 46.38191432 557.17427566 39.39250971 556.72141854 C37.33154093 556.58771564 35.27061233 556.4533913 33.20973187 556.31833389 C30.38583915 556.13359102 27.56181189 555.95119872 24.73765135 555.77059823 C23.85241661 555.71386464 22.96718188 555.65713105 22.05512185 555.59867826 C17.36618297 555.30749475 12.67881176 555.06507857 7.98449457 554.87832183 C6.99266314 554.83828432 6.0008317 554.79824681 4.97894477 554.75699605 C3.09366979 554.68384737 1.208153 554.61658377 -0.67758295 554.55648031 C-14.37365015 554.0327188 -25.26245078 549.40671656 -34.81773901 539.37880117 C-42.50094877 530.01035907 -45.33260314 518.52015484 -45.25692129 506.63105279 C-45.25982817 505.82168666 -45.26273505 505.01232052 -45.26573002 504.17842814 C-45.2730013 501.47919665 -45.26610012 498.78019452 -45.2592063 496.08096486 C-45.26151186 494.12104294 -45.26468903 492.16112188 -45.26866078 490.20120263 C-45.27700426 484.82507179 -45.27288549 479.44901201 -45.26668835 474.07288092 C-45.26216303 468.27115276 -45.26914804 462.46943681 -45.27464819 456.66771108 C-45.28354313 445.30561837 -45.28161967 433.94355208 -45.27582291 422.58145834 C-45.27130661 413.346916 -45.27069338 404.11238108 -45.27287054 394.87783796 C-45.27317701 393.56364801 -45.27348347 392.24945805 -45.27379923 390.89544417 C-45.27427837 388.89500745 -45.27475753 386.89457074 -45.27525301 384.89413403 C-45.28136939 359.90184312 -45.27582677 334.90956661 -45.26505921 309.91727793 C-45.2555693 287.72174606 -45.25641652 265.52623713 -45.2659812 243.33070546 C-45.27669501 218.38523566 -45.28093449 193.43977859 -45.27475667 168.4943068 C-45.27411957 165.83406458 -45.27349083 163.17382237 -45.27287054 160.51358014 C-45.27256199 159.20468978 -45.27225344 157.89579941 -45.27193554 156.5472457 C-45.27020885 147.32451991 -45.27312316 138.10180226 -45.27782965 128.87907773 C-45.28343974 117.63855656 -45.28191934 106.39806331 -45.27126816 95.15754534 C-45.26601305 89.4226987 -45.26395201 83.68789863 -45.27056646 77.95305234 C-45.27653133 72.70197217 -45.27324182 67.45098167 -45.26261136 62.19990962 C-45.26037962 60.30162925 -45.26150855 58.40334128 -45.26636294 56.50506581 C-45.30595126 39.73630484 -44.15523742 24.79662509 -31.98570776 11.87489492 C-22.93042421 3.89124255 -11.9543629 0.00711468 0 0 Z " fill="#FFFFFF" transform="translate(889.0052390098572,938.8711988329887)"/>
<path d="M0 0 C6.12661883 0.0083005 12.25323692 0.01236904 18.37985992 0.01613998 C77.31267543 0.05662914 136.21970591 0.33336462 195.13028717 2.09954453 C199.62856391 2.23434765 204.12699888 2.36268456 208.62551975 2.48904896 C284.68289359 4.62759273 360.69235049 8.2935216 436.6322403 13.00774765 C437.49700359 13.0614225 438.36176689 13.11509735 439.25273514 13.17039871 C444.9147156 13.52264014 450.5763219 13.88047954 456.23770905 14.24212265 C457.30030567 14.30948687 457.30030567 14.30948687 458.3843689 14.37821198 C460.38270709 14.50535241 462.38089014 14.63492405 464.37906647 14.76458359 C465.48594315 14.83610641 466.59281982 14.90762924 467.73323822 14.98131943 C472.64274631 15.3469737 477.54305082 15.80022685 482.4447403 16.25774765 C483.22950397 37.45062396 484.01194606 58.64358486 484.79164886 79.83664799 C485.15375805 89.67765756 485.51661763 99.51863837 485.88126373 109.35955429 C486.19920619 117.94010392 486.51572035 126.52070486 486.83054256 135.10136956 C486.99717955 139.64181406 487.16451598 144.18223028 487.33356476 148.72258568 C487.49290901 153.0029027 487.65033215 157.28328623 487.80633163 161.56372643 C487.86367666 163.12815031 487.92170177 164.69254946 487.98048782 166.25691986 C488.29332124 174.59275477 488.53286855 182.91488318 488.4447403 191.25774765 C479.2497754 191.46942222 470.23248671 190.68531098 461.09708405 189.7538414 C459.4790953 189.59317801 457.86104636 189.43311986 456.24294281 189.27361679 C452.7756843 188.93127393 449.30870103 188.58631165 445.84189606 188.23940659 C436.43143463 187.2993449 427.01820497 186.38753604 417.60489655 185.47649765 C416.63685593 185.38274794 415.66881531 185.28899822 414.67144012 185.19240761 C323.08337996 176.33453325 231.25124369 169.57872548 -58.5552597 157.25774765 C-59.50978027 157.23212753 -60.46430084 157.20650742 -61.44774628 157.18011093 C-134.81365871 155.2207538 -208.15736093 154.83568386 -281.5552597 154.25774765 C-281.5552597 347.30774765 -281.5552597 540.35774765 -281.5552597 739.25774765 C-269.3452597 738.92774765 -257.1352597 738.59774765 -244.5552597 738.25774765 C-231.5731407 738.06723213 -231.5731407 738.06723213 -225.10825539 738.0276432 C-222.33277678 738.01049662 -219.55736566 737.98845932 -216.78192902 737.96552658 C-212.76194319 737.9324449 -208.74195077 737.9006532 -204.72194672 737.86986923 C-105.15527182 737.09202956 -5.58993579 734.51145983 463.78192329 703.56318283 C465.84244537 703.34517744 467.90311064 703.12857505 469.96381378 702.91228867 C472.43173259 702.65231575 474.89928014 702.3887804 477.36634064 702.12078476 C478.45407776 702.00613876 479.54181488 701.89149277 480.66251373 701.77337265 C481.59303558 701.67314804 482.52355743 701.57292343 483.48227692 701.46966171 C487.14919548 701.20735582 490.76866734 701.22518929 494.4447403 701.25774765 C494.63231934 717.71955811 494.08078053 734.14456747 493.4680264 750.59200454 C493.32860737 754.35283754 493.1930988 758.11381188 493.05702972 761.8747673 C492.82831134 768.18082402 492.59680777 774.48677343 492.36344147 780.79265976 C492.09543753 788.03509509 491.83131177 795.27766357 491.56938511 802.52032107 C491.31495756 809.55444506 491.0583231 816.58848671 490.80052757 823.62248802 C490.69189996 826.58650531 490.58391035 829.55054475 490.47644997 832.51460457 C489.40548034 862.0049607 489.40548034 862.0049607 488.4447403 876.25774765 C467.79057846 878.25658197 447.09499204 879.44287649 426.3822403 880.63274765 C424.49395433 880.74176567 422.60566902 880.85079495 420.71738434 880.95983505 C334.03755458 885.95284268 247.29294495 889.4938617 160.48770905 891.32806015 C158.96199004 891.36044926 158.96199004 891.36044926 157.40544844 891.3934927 C110.46810087 892.38302646 63.54085347 892.56852389 16.59451872 892.51488578 C8.01486822 892.50611647 -0.56472443 892.51248439 -9.14437139 892.52214265 C-18.70455747 892.53244885 -28.26471288 892.53119422 -37.82490158 892.52537918 C-41.77504607 892.5232171 -45.72515567 892.52490406 -49.67529678 892.53033829 C-134.49777612 892.63115646 -223.18092033 887.81022441 -403.5552597 798.25774765 C-406.00694975 795.68045873 -408.28069155 792.99113427 -410.5552597 790.25774765 C-411.76568939 788.89649765 -411.76568939 788.89649765 -413.0005722 787.50774765 C-471.61506702 721.19145714 -483.84897696 623.92169668 -489.2427597 538.94524765 C-489.33416733 537.52130692 -489.33416733 537.52130692 -489.42742157 536.0685997 C-491.28843931 506.5657218 -491.76260901 477.06016021 -491.7427597 447.50774765 C-491.74264011 446.71221985 -491.74252052 445.91669205 -491.74239731 445.09705734 C-491.73444945 403.07009434 -490.64770001 361.10728445 -486.5552597 319.25774765 C-486.48714081 318.55442307 -486.41902191 317.85109848 -486.34883881 317.12646103 C-481.12223113 263.6054427 -471.86990812 207.76161177 -447.5552597 159.25774765 C-447.09506439 158.32785019 -446.63486908 157.39795273 -446.16072845 156.43987656 C-440.0560631 144.17215689 -433.63424894 132.34075542 -425.5552597 121.25774765 C-425.15097748 120.69942245 -424.74669525 120.14109726 -424.33016205 119.56585312 C-418.28882863 111.29284204 -411.6492816 103.64573961 -404.5552597 96.25774765 C-403.75064301 95.41228378 -403.75064301 95.41228378 -402.92977142 94.54973984 C-394.71573535 85.95856494 -386.16882655 78.25059481 -376.5552597 71.25774765 C-375.60779877 70.56769638 -375.60779877 70.56769638 -374.6411972 69.86370468 C-365.0072262 62.9140996 -355.04147182 56.82748203 -344.5552597 51.25774765 C-343.65299652 50.76975693 -343.65299652 50.76975693 -342.7325058 50.27190781 C-278.57117903 15.75041947 -201.77388195 6.86587316 -130.0712986 2.41410637 C-128.47412149 2.31485013 -126.87700953 2.21453546 -125.27998924 2.11278725 C-83.57348037 -0.53077233 -41.76833747 -0.05752329 0 0 Z " fill="#FFFFFF" transform="translate(4144.55525970459,687.7422523498535)"/>
<path d="M0 0 C1.34893845 -0.01441132 1.34893845 -0.01441132 2.72512817 -0.02911377 C4.17192459 -0.03548859 4.17192459 -0.03548859 5.64794922 -0.04199219 C7.16785965 -0.0505423 7.16785965 -0.0505423 8.71847534 -0.05926514 C10.86862144 -0.06870564 13.01878195 -0.07524534 15.16894531 -0.07910156 C18.39268995 -0.08868891 21.61576358 -0.11967109 24.83935547 -0.15136719 C63.57339828 -0.35065366 95.8613266 11.40113022 123.86279297 38.62597656 C146.61761689 62.74528728 156.83312738 93.93302843 156.7220459 126.5879364 C156.72694618 128.39502187 156.73314119 130.20210421 156.74050379 132.00918132 C156.75678106 136.93046946 156.75461056 141.85159614 156.74912882 146.77290165 C156.74644358 152.09741016 156.7610179 157.42187705 156.77322388 162.74636841 C156.79421393 173.15867368 156.79882255 183.57092319 156.79703599 193.98324712 C156.79572567 202.44767324 156.79954623 210.91208204 156.80696106 219.3765049 C156.80906035 221.81941519 156.81115795 224.26232548 156.81325388 226.70523578 C156.81429741 227.92129466 156.81534093 229.13735355 156.81641608 230.3902627 C156.83529089 253.35456527 156.83427609 276.31883585 156.82744676 299.28314296 C156.82186741 320.27990472 156.84271841 341.27654462 156.87580723 362.2732779 C156.90955456 383.85596455 156.92471165 405.43859282 156.9200902 427.02130634 C156.91784734 439.129272 156.92306264 451.2371249 156.94798279 463.34506798 C156.96900875 473.64810942 156.9725744 483.95097618 156.9536832 494.25402483 C156.94453537 499.50737981 156.94335371 504.76040916 156.96403885 510.01373863 C156.98278601 514.82816869 156.9782034 519.64200723 156.95549303 524.45641503 C156.95131692 526.19236206 156.95547385 527.92835478 156.96908897 529.66425344 C157.07083511 543.59159371 154.94316083 555.08828005 145.49169922 566.00878906 C135.61220401 575.8347852 123.45770645 579.32149117 109.89634931 579.28878331 C108.93579342 579.29043409 107.97523754 579.29208487 106.98557389 579.29378567 C103.74157533 579.29812647 100.49762182 579.29530439 97.25362206 579.29256058 C94.90445419 579.29420946 92.5552866 579.29629539 90.20611948 579.29878068 C85.06935991 579.30319569 79.93260916 579.3044779 74.7958483 579.30305234 C67.1058254 579.30093388 59.4158125 579.30454076 51.72579114 579.30926711 C38.62088832 579.31714702 25.51598823 579.32022948 12.41108322 579.32071304 C-0.87429945 579.32121508 -14.15967906 579.32385836 -27.44506073 579.32912064 C-28.2833775 579.32945077 -29.12169427 579.3297809 -29.98541458 579.33012104 C-33.39961547 579.33147101 -36.81381636 579.33283367 -40.22801723 579.33421315 C-80.67125882 579.35052486 -121.11449983 579.35690284 -161.55774415 579.36166102 C-181.69164753 579.3640432 -201.82555057 579.36774646 -221.9594537 579.37169811 C-286.52390455 579.38436312 -351.08835539 579.39514719 -415.65280747 579.39853857 C-418.73931331 579.39870081 -421.82581915 579.39886637 -424.91232499 579.39903296 C-431.10248655 579.39936676 -437.29264811 579.39969724 -443.48280966 579.40002751 C-450.73017227 579.40041442 -457.97753488 579.40080402 -465.22489748 579.40119858 C-467.29916099 579.401311 -469.3734245 579.40142241 -471.44768801 579.40153283 C-538.0772049 579.40508288 -604.70671101 579.4201635 -671.33622379 579.44347058 C-719.20702534 579.46020905 -767.07782486 579.47568592 -814.94862938 579.48020554 C-815.9328296 579.48029902 -816.91702982 579.48039251 -817.93105429 579.48048883 C-839.53531226 579.48250775 -861.13957019 579.4836639 -882.74382824 579.48401741 C-890.47402525 579.48415359 -898.20422225 579.48436258 -905.93441926 579.48461066 C-907.8575485 579.48467222 -909.78067774 579.48473055 -911.70380697 579.48478561 C-942.36420977 579.48570591 -973.02460131 579.49567994 -1003.68500041 579.5102431 C-1034.56202149 579.52485049 -1065.43902878 579.52990626 -1096.31605271 579.52182356 C-1100.58112161 579.52070815 -1104.84619052 579.5196975 -1109.11125946 579.51874924 C-1109.94734395 579.51855927 -1110.78342844 579.5183693 -1111.64484882 579.51817358 C-1124.89295798 579.51543803 -1138.14104164 579.52278798 -1151.38914525 579.53432261 C-1164.41062053 579.54545072 -1177.4320597 579.54590738 -1190.45353553 579.53495242 C-1197.42145415 579.52938353 -1204.38929191 579.52852848 -1211.35720308 579.54146114 C-1217.69259658 579.55275963 -1224.02782857 579.55032021 -1230.36321635 579.53679407 C-1232.64424264 579.53435287 -1234.9252812 579.53696929 -1237.20629398 579.54519054 C-1240.30071948 579.55561275 -1243.39457581 579.54752041 -1246.48898089 579.53487897 C-1247.36792508 579.54228747 -1248.24686927 579.54969596 -1249.15244813 579.55732896 C-1261.40882615 579.45220155 -1272.84355765 575.27922674 -1281.97705078 567.01660156 C-1291.42836843 556.67241751 -1294.12906449 546.01667985 -1294.07641602 532.38037109 C-1294.08671089 530.50295731 -1294.08671089 530.50295731 -1294.09721375 528.58761597 C-1294.11230663 525.1782422 -1294.11399571 521.76941857 -1294.10827136 518.36005259 C-1294.10516448 515.50249182 -1294.11128863 512.64497969 -1294.11731011 509.78742588 C-1294.13132147 503.03972001 -1294.12982287 496.29214085 -1294.1184082 489.54443359 C-1294.10693466 482.60915209 -1294.12099726 475.67425765 -1294.14780468 468.73902714 C-1294.17003822 462.76077641 -1294.17658179 456.7826465 -1294.17072827 450.80435741 C-1294.16737515 447.24432592 -1294.16966274 443.68454233 -1294.18697929 440.12454605 C-1294.20547224 436.14977383 -1294.19118283 432.17546906 -1294.17407227 428.20068359 C-1294.18374023 427.03877502 -1294.1934082 425.87686646 -1294.20336914 424.67974854 C-1294.09287759 412.36613571 -1290.05751519 402.05759571 -1281.67236328 393.00097656 C-1272.99005854 384.70627471 -1263.432046 380.99942454 -1251.57944924 381.03512496 C-1250.33777537 381.03291157 -1250.33777537 381.03291157 -1249.07101719 381.03065347 C-1246.27354892 381.02689882 -1243.47613429 381.03031331 -1240.67866611 381.03364086 C-1238.65359491 381.03240768 -1236.62852394 381.03073466 -1234.60345343 381.02865955 C-1228.99932279 381.02419549 -1223.39520844 381.02599386 -1217.79107734 381.02873286 C-1211.70896267 381.03060081 -1205.62685146 381.02666353 -1199.54473776 381.02341968 C-1188.87178523 381.01851571 -1178.19883775 381.01724731 -1167.52588463 381.01838493 C-1156.07033284 381.01957671 -1144.61478436 381.01855609 -1133.15923309 381.01479721 C-1132.43642479 381.0145605 -1131.71361649 381.01432379 -1130.96890491 381.0140799 C-1127.28343983 381.01285857 -1123.59797477 381.01159274 -1119.91250972 381.01030445 C-1112.35540888 381.00767231 -1104.79830796 381.00531867 -1097.241207 381.00305045 C-1096.09941816 381.00270674 -1096.09941816 381.00270674 -1094.93456289 381.0023561 C-1083.08204138 380.99883476 -1071.22951998 380.99654185 -1059.37699807 380.99498975 C-1058.57592176 380.99488444 -1057.77484546 380.99477913 -1056.94949411 380.99467063 C-1053.69602003 380.99424609 -1050.44254595 380.99382814 -1047.18907187 380.99341482 C-1007.43397394 380.98835855 -967.67888513 380.97370302 -927.92379159 380.95472881 C-918.62383749 380.95029138 -909.32388334 380.94597289 -900.02392918 380.94166011 C-898.32032808 380.94086957 -896.61672699 380.94007901 -894.9131259 380.93928842 C-891.49536808 380.93770259 -888.07761026 380.93611798 -884.65985244 380.93453394 C-881.22939378 380.93294356 -877.79893513 380.93134909 -874.36847647 380.9297512 C-834.78790586 380.91132055 -795.20733467 380.89451607 -755.62676272 380.87921213 C-752.94293504 380.87817357 -750.25910736 380.87713012 -747.57527969 380.87608619 C-706.24350572 380.86004419 -664.9117328 380.84699645 -623.57995605 380.84106445 C-622.69112048 380.84093636 -621.8022849 380.84080827 -620.88651492 380.84067629 C-606.55546722 380.83862022 -592.2244195 380.83672127 -577.89337178 380.83485614 C-536.61476806 380.8294831 -495.3361695 380.82169356 -454.05757046 380.8004961 C-453.20872165 380.80006143 -452.35987284 380.79962675 -451.48530133 380.79917891 C-433.68791331 380.79003386 -415.89052588 380.78004519 -398.09313895 380.76896466 C-389.75877788 380.76377828 -381.42441671 380.75877878 -373.09005547 380.75388527 C-371.85919635 380.75315752 -371.85919635 380.75315752 -370.60347139 380.75241508 C-344.16676287 380.7368776 -317.73007299 380.73447372 -291.2933609 380.73911541 C-264.66493208 380.74374796 -238.03653783 380.73618855 -211.40811911 380.71151168 C-207.72811386 380.70810577 -204.04810849 380.70484461 -200.36810303 380.7016716 C-199.28603194 380.70073119 -199.28603194 380.70073119 -198.18210082 380.69977178 C-186.76135364 380.6902182 -175.34065208 380.69410536 -163.91990652 380.70361446 C-152.68859969 380.7126919 -141.45737339 380.70722047 -130.22607386 380.68731635 C-124.21849064 380.67708813 -118.21108704 380.6732243 -112.20350672 380.68694159 C-106.73711019 380.69930209 -101.27105359 380.69325463 -95.80468497 380.67259079 C-93.84050073 380.66838113 -91.87628775 380.67084916 -89.9121245 380.68086005 C-76.40749689 380.74472983 -63.43838411 380.47572323 -52.60986328 371.21972656 C-44.02636763 362.09976243 -42.37401834 352.63649612 -42.41407776 340.56173706 C-42.4085642 338.63726893 -42.4085642 338.63726893 -42.40293926 336.67392266 C-42.39297084 333.11911991 -42.3953284 329.564416 -42.39966619 326.00960588 C-42.4021446 322.17303336 -42.39307112 318.33648667 -42.38528442 314.49992371 C-42.37324296 307.85221792 -42.36813166 301.2045361 -42.36740303 294.55681992 C-42.36607645 284.93228789 -42.35095597 275.30781393 -42.33190786 265.68330242 C-42.30106631 250.05059421 -42.2769022 234.41788454 -42.2590332 218.78515625 C-42.25796052 217.84965333 -42.25688784 216.91415041 -42.25578266 215.95029892 C-42.24396922 205.51933713 -42.23376325 195.08837475 -42.2253418 184.65740967 C-42.22226801 180.87805174 -42.21917919 177.09869383 -42.21606445 173.31933594 C-42.21491644 171.9205223 -42.21491644 171.9205223 -42.21374524 170.49344979 C-42.20064894 154.92612673 -42.1759878 139.35884561 -42.14232105 123.79155362 C-42.12206455 114.19599485 -42.11173704 104.6005259 -42.11431026 95.00494559 C-42.11534791 88.42412717 -42.1056671 81.8433796 -42.08767123 75.26258592 C-42.07765915 71.46970907 -42.07246246 67.67698903 -42.08043861 63.88410378 C-42.08900069 59.76340551 -42.07432667 55.64310371 -42.05763245 51.52243042 C-42.06384426 50.33582852 -42.07005608 49.14922662 -42.07645613 47.92666709 C-41.97447867 34.06871436 -38.76646102 23.05300971 -29.41455078 12.64941406 C-21.35637338 4.81147624 -11.33294861 0.09866253 0 0 Z " fill="#FFFFFF" transform="translate(2085.67236328125,1413.8388671875)"/>
<path d="M0 0 C266.97 0 533.94 0 809 0 C809 50.49 809 100.98 809 153 C704.72 153 600.44 153 493 153 C493 335.82 493 518.64 493 707 C597.28 707 701.56 707 809 707 C809 757.49 809 807.98 809 860 C542.03 860 275.06 860 0 860 C0 809.51 0 759.02 0 707 C103.95 707 207.9 707 315 707 C315 524.18 315 341.36 315 153 C211.05 153 107.1 153 0 153 C0 102.51 0 52.02 0 0 Z " fill="#FFFFFF" transform="translate(2681,704)"/>
<path d="M0 0 C1.13588058 -0.00335861 2.27176117 -0.00671722 3.44206238 -0.01017761 C7.18689069 -0.01965523 10.93167413 -0.02162912 14.67651367 -0.02270508 C17.28814207 -0.02591984 19.89977029 -0.02928408 22.51139832 -0.03279114 C27.98286225 -0.03917485 33.45431409 -0.04067479 38.92578125 -0.04003906 C45.2292733 -0.03943883 51.53267962 -0.04998437 57.83614999 -0.06578273 C63.92354226 -0.08048998 70.01089374 -0.08402561 76.09830284 -0.08342934 C78.67737872 -0.08460644 81.25645529 -0.08901304 83.83551979 -0.0967617 C87.44901185 -0.10660196 91.06228538 -0.1036675 94.67578125 -0.09765625 C95.73221832 -0.10327576 96.7886554 -0.10889526 97.87710571 -0.11468506 C111.85788311 -0.05583692 124.38890743 3.40012516 134.78588867 13.23510742 C142.89053467 22.10126378 146.65401304 32.44823112 146.65963292 44.40144593 C146.66415687 46.3079494 146.66415687 46.3079494 146.66877222 48.2529681 C146.66707327 49.66394104 146.66528253 51.07491386 146.66341019 52.48588657 C146.66505992 53.99056516 146.66714623 55.49524332 146.66963029 56.99992076 C146.67520554 61.15449311 146.67452295 65.30904489 146.6728527 69.46361979 C146.67212278 73.97611264 146.67714178 78.48859963 146.68142772 83.00108999 C146.68901587 91.9599855 146.69120119 100.91887506 146.69175677 109.87777344 C146.69266961 120.6051053 146.69933476 131.33243162 146.7061036 142.0597611 C146.72217422 167.98950406 146.72806805 193.91924644 146.73285235 219.84899348 C146.73518719 232.11215988 146.73878971 244.37532581 146.74254772 256.63849184 C146.75538405 298.60518828 146.76610327 340.57188445 146.76955032 382.5385828 C146.76977196 385.17370519 146.76999374 387.80882758 146.77021568 390.44394996 C146.77043632 393.08548852 146.7706568 395.72702707 146.77087712 398.36856562 C146.77131968 403.66807369 146.77176679 408.96758177 146.7722168 414.26708984 C146.77238088 416.23804915 146.77238088 416.23804915 146.77254828 418.24882582 C146.77617952 460.86163712 146.79210167 503.47442506 146.81540716 546.08723035 C146.8399941 591.12532781 146.85372263 636.16341554 146.85491824 681.20151991 C146.8550897 686.14404039 146.85530513 691.08656087 146.85555267 696.02908134 C146.85560844 697.24609534 146.85566421 698.46310934 146.85572167 699.71700254 C146.8568731 719.31617783 146.86790291 738.91533569 146.88243973 758.51450509 C146.89679446 778.20847599 146.9000475 797.9024245 146.89199975 817.5963992 C146.88753868 829.30051376 146.89142319 841.00455617 146.90723826 852.70866128 C146.91697436 860.52543345 146.91582309 868.34215496 146.90580203 876.15892665 C146.90040014 880.61362069 146.89973163 885.06817598 146.91231075 889.52285863 C146.92366888 893.57898559 146.92110431 897.6348612 146.90764368 901.69097956 C146.90521694 903.14578581 146.90776797 904.60061156 146.91604015 906.05539632 C146.99514897 920.95247346 144.75682442 933.20322766 134.42651367 944.43432617 C123.27007473 954.97864192 111.32458394 957.44809699 96.42553711 957.43579102 C94.65535469 957.44586685 94.65535469 957.44586685 92.84941101 957.45614624 C88.96751638 957.47506578 85.08579522 957.47904745 81.20385742 957.48120117 C79.85787125 957.48405173 78.51188575 957.48724435 77.16590118 957.49077225 C70.11587322 957.50923281 63.06592048 957.51744798 56.01586914 957.51586914 C49.47826133 957.51466923 42.94098443 957.53575203 36.40346026 957.56735647 C30.76234241 957.59364067 25.12133183 957.60423137 19.48015332 957.60295832 C16.12341436 957.60245217 12.76720268 957.60982506 9.41048431 957.62931442 C5.65871749 957.64905808 1.90778811 957.6431025 -1.84399414 957.63110352 C-2.93325699 957.64234253 -4.02251984 957.65358154 -5.14479065 957.66516113 C-18.51073128 957.55732692 -31.0554926 953.34238195 -40.75317383 943.92651367 C-50.06419455 933.20578701 -52.21816498 921.5336143 -52.09442997 907.71093655 C-52.09935235 906.1849882 -52.10646398 904.65904566 -52.11554393 903.13311639 C-52.1340994 898.95661027 -52.12174853 894.78069247 -52.10415399 890.60420356 C-52.09052616 886.05421279 -52.10599874 881.50430332 -52.11770481 876.95432001 C-52.1342037 868.98539819 -52.13216108 861.01664933 -52.11787796 853.04772568 C-52.0966967 841.1976838 -52.10415225 829.34777966 -52.11725318 817.4977323 C-52.13970688 796.33312996 -52.13371608 775.16860749 -52.11581708 754.00400507 C-52.1002509 735.4831627 -52.09439681 716.96234833 -52.09815788 698.44149971 C-52.09839468 697.21305888 -52.09863148 695.98461805 -52.09887546 694.71895175 C-52.09985038 689.7323445 -52.10087119 684.74573727 -52.10196056 679.75913006 C-52.11189987 633.6481325 -52.0946926 587.53718166 -52.06359036 541.42619544 C-52.03513163 499.1944313 -52.02916559 456.96272785 -52.04443359 414.73095703 C-52.0482598 404.0872215 -52.05205079 393.44348596 -52.05560398 382.79975033 C-52.0560418 381.48939675 -52.05647961 380.17904317 -52.05693069 378.82898191 C-52.06816904 344.10161118 -52.0608227 309.37424476 -52.04772323 274.64687544 C-52.04633466 270.91042642 -52.04495395 267.17397739 -52.04358481 263.43752836 C-52.04267543 260.95885312 -52.04175276 258.48017787 -52.04081671 256.00150264 C-52.03401947 237.49121441 -52.03668235 218.98094307 -52.04376411 200.47065544 C-52.05172779 179.4253577 -52.04517456 158.38011884 -52.01958907 137.33483403 C-52.00565875 125.55512613 -52.00268978 113.7755368 -52.01552378 101.99582697 C-52.02298079 94.12893502 -52.01590363 86.26214298 -51.99696567 78.39527051 C-51.98657474 73.91207391 -51.98246158 69.42911605 -51.99594421 64.94592225 C-52.00808433 60.86398064 -52.00169156 56.78249526 -51.98078411 52.70059297 C-51.97647775 51.23649354 -51.9787943 49.77235498 -51.98871854 48.30828286 C-52.07303433 34.88319434 -49.82313276 24.11413392 -40.46801758 14.14526367 C-39.80930664 13.43370117 -39.1505957 12.72213867 -38.47192383 11.98901367 C-27.68588942 1.38109726 -14.3656256 -0.00612729 0 0 Z " fill="#FFFFFF" transform="translate(518.468017578125,1035.854736328125)"/>
<path d="M0 0 C18.48 0 36.96 0 56 0 C58.31 4.95 60.62 9.9 63 15 C63.754021 16.61543701 64.50804199 18.23087402 65.28491211 19.89526367 C74.02768108 38.63659576 82.68764997 57.40621798 91.03414917 76.32772827 C96.233841 88.10980273 101.57837871 99.81849203 107 111.5 C113.55830506 125.63162357 119.98140712 139.81593847 126.25976562 154.07421875 C131.71635797 166.4448646 137.36391045 178.70307735 143 191 C143.495 96.455 143.495 96.455 144 0 C153.24 0 162.48 0 172 0 C172 65.67 172 131.34 172 199 C153.52 199 135.04 199 116 199 C113.69 194.05 111.38 189.1 109 184 C107.86896851 181.57684448 107.86896851 181.57684448 106.71508789 179.10473633 C97.97231892 160.36340424 89.31235003 141.59378202 80.96585083 122.67227173 C75.766159 110.89019727 70.42162129 99.18150797 65 87.5 C58.44169494 73.36837643 52.01859288 59.18406153 45.74023438 44.92578125 C40.28364203 32.5551354 34.63608955 20.29692265 29 8 C28.67 71.03 28.34 134.06 28 199 C18.76 199 9.52 199 0 199 C0 133.33 0 67.66 0 0 Z " fill="#FFFFFF" transform="translate(3280,1790)"/>
<path d="M0 0 C18.15 0 36.3 0 55 0 C59.86828325 9.7365665 64.6171568 19.37331255 69 29.3125 C70.1265039 31.85002993 71.25632107 34.38607758 72.38671875 36.921875 C72.67818283 37.57628067 72.96964691 38.23068634 73.26994324 38.90492249 C76.39866057 45.91701701 79.60254493 52.89428882 82.80673218 59.87213135 C89.04016881 73.44735605 95.15970753 87.06840219 101.20132446 100.73001099 C106.03221379 111.64747893 110.98525955 122.49649708 116.04956055 133.30810547 C121.36224199 144.69089388 126.45239958 156.17047046 131.53320312 167.65820312 C131.8594165 168.39566269 132.18562988 169.13312225 132.52172852 169.89292908 C133.12381874 171.25489821 133.72528919 172.61714163 134.32592773 173.97975159 C136.84067452 179.67407633 139.4235329 185.33177238 142 191 C142.495 96.455 142.495 96.455 143 0 C152.24 0 161.48 0 171 0 C171 65.67 171 131.34 171 199 C152.52 199 134.04 199 115 199 C107.19076041 182.4327347 99.4318997 165.86692082 91.98095703 149.13623047 C87.77851434 139.70775466 83.49376596 130.31895238 79.1875 120.9375 C73.64072976 108.85086234 68.19146129 96.72470127 62.8125 84.5625 C58.09282405 73.8923739 53.3100352 63.26018103 48.375 52.6875 C41.46303513 37.84710484 34.73812326 22.92013008 28 8 C27.67 71.03 27.34 134.06 27 199 C18.09 199 9.18 199 0 199 C0 133.33 0 67.66 0 0 Z " fill="#FFFFFF" transform="translate(5588,1790)"/>
<path d="M0 0 C110.91456422 0 110.91456422 0 130.73046875 19.4296875 C143.13426095 33.47735577 144.76244227 49.29860522 144.17919922 67.25146484 C143.42494877 78.82006372 137.45268051 91.02734826 129 99 C122.40504017 104.53125663 112.00263262 113 103 113 C110.73233048 126.32670709 118.51995561 139.62028473 126.375 152.875 C126.77253479 153.54630951 127.17006958 154.21761902 127.57965088 154.90927124 C131.91165365 162.21847081 136.28286502 169.49936963 140.76953125 176.71484375 C141.14630005 177.32164978 141.52306885 177.92845581 141.91125488 178.5536499 C143.68982344 181.41516779 145.47691968 184.27047165 147.27685547 187.11865234 C147.90092285 188.11719238 148.52499023 189.11573242 149.16796875 190.14453125 C149.71735107 191.01440674 150.2667334 191.88428223 150.83276367 192.78051758 C152 195 152 195 152 198 C136.655 198.495 136.655 198.495 121 199 C112.60216643 185.03733695 104.27590676 171.03517776 96 157 C93.75084323 153.18700174 91.50061764 149.37463611 89.25 145.5625 C88.71294434 144.65161621 88.17588867 143.74073242 87.62255859 142.80224609 C85.16512304 138.63949692 82.69609603 134.48525492 80.18359375 130.35546875 C79.75852539 129.65542725 79.33345703 128.95538574 78.89550781 128.23413086 C78.11366598 126.94996986 77.32809615 125.66806807 76.53808594 124.38891602 C74 120.22015212 74 120.22015212 74 118 C58.49 118 42.98 118 27 118 C27 144.73 27 171.46 27 199 C18.09 199 9.18 199 0 199 C0 133.33 0 67.66 0 0 Z M27 24 C27 46.77 27 69.54 27 93 C35.70375 93.04125 44.4075 93.0825 53.375 93.125 C57.46720947 93.15231201 57.46720947 93.15231201 61.64208984 93.18017578 C63.83170373 93.18602318 66.02131982 93.19111815 68.2109375 93.1953125 C69.32573486 93.20554443 70.44053223 93.21577637 71.58911133 93.22631836 C86.01024579 93.22950113 98.2005772 90.53944213 108.86328125 80.37890625 C116.57296765 71.79536143 116.58048547 61.94954941 116 51 C114.90871724 42.9173123 110.0341956 37.23437586 104 32 C92.82929382 24.62885375 81.1850699 23.6841577 68.11328125 23.8046875 C67.06281616 23.80670166 66.01235107 23.80871582 64.93005371 23.81079102 C61.05749051 23.82114659 57.18499022 23.84906789 53.3125 23.875 C44.629375 23.91625 35.94625 23.9575 27 24 Z " fill="#FFFFFF" transform="translate(4078,1791)"/>
<path d="M0 0 C0.63164062 0.55042969 1.26328125 1.10085938 1.9140625 1.66796875 C19.391016 17.82816548 28.90243418 43.31314892 30.20483398 66.67407227 C30.30286671 70.53526448 30.32898345 74.38761825 30.3125 78.25 C30.31067719 78.92909424 30.30885437 79.60818848 30.30697632 80.30786133 C30.17550722 109.4520331 21.65221294 134.56995274 1.375 156.125 C-18.41617981 175.15145107 -43.44879184 181.53507167 -70.31640625 181.2109375 C-94.10278033 180.56623404 -114.89485591 171.58864774 -132 155 C-132.61230469 154.46117187 -133.22460938 153.92234375 -133.85546875 153.3671875 C-150.09448284 138.5774218 -159.09547043 112.91966641 -160.17700195 91.4934082 C-160.7561677 56.59348032 -156.29177227 27.54357361 -131.3125 0.9375 C-96.0802824 -33.06090454 -35.78213122 -32.51299963 0 0 Z M-111 19 C-111.63808594 19.63808594 -112.27617187 20.27617188 -112.93359375 20.93359375 C-128.71601005 37.84081478 -133.67191586 61.81700852 -132.92285156 84.31738281 C-131.52962675 108.10389987 -122.75800206 128.94791009 -104.87109375 144.8984375 C-91.67427799 155.40256964 -75.58218951 159.02381765 -59 158 C-42.13964937 155.53704867 -27.00905344 148.31186462 -16 135 C-0.1805055 112.71539563 4.16246013 86.58997474 0.38671875 59.75390625 C-2.27208745 45.01319501 -8.79903001 30.98721076 -19 20 C-19.88558594 18.96166016 -19.88558594 18.96166016 -20.7890625 17.90234375 C-31.28785874 6.30899216 -46.15148511 0.68202666 -61.48828125 -0.375 C-81.02527557 -1.1727693 -97.14858334 5.14858334 -111 19 Z " fill="#FFFFFF" transform="translate(3136,1811)"/>
<path d="M0 0 C0.74507812 0.65226562 1.49015625 1.30453125 2.2578125 1.9765625 C19.6730059 18.17815357 29.98665963 42.92467894 31.17700195 66.5065918 C31.69755705 97.87470254 29.04373608 128.89754364 6.19726562 152.80664062 C4.81025877 154.2164164 3.40535804 155.60851715 2 157 C1.22011719 157.80179688 0.44023437 158.60359375 -0.36328125 159.4296875 C-18.24863796 176.80403402 -42.37480221 182.40129151 -66.62988281 182.30053711 C-93.57633249 181.78799376 -115.0978539 171.9021461 -134.109375 152.890625 C-156.26591579 129.36003517 -160.05575938 98.64290717 -159.17919922 67.80664062 C-157.91838857 41.02386187 -146.12512853 16.60458346 -126.46923828 -1.40234375 C-91.98599009 -31.81901521 -33.88439687 -30.60147953 0 0 Z M-115.4140625 25.921875 C-131.01798985 46.36840049 -133.2067964 71.92814396 -130.72314453 96.76904297 C-129.13767982 108.17764222 -124.74353914 118.10063722 -119 128 C-118.22269531 129.34384766 -118.22269531 129.34384766 -117.4296875 130.71484375 C-108.31390426 145.28515303 -94.36584859 153.79576326 -78 158 C-60.7808423 160.95777654 -42.83529047 158.38608838 -28.375 148.25 C-11.05068551 135.00055948 -1.37351676 116.39212013 2 95 C5.11990493 71.34894036 1.22983489 45.79184004 -13.3125 26.3125 C-14.52073613 24.85736344 -15.75051233 23.41987235 -17 22 C-17.64453125 21.24976563 -18.2890625 20.49953125 -18.953125 19.7265625 C-30.12240767 7.60582242 -45.27091308 1.20637334 -61.65112305 0.53173828 C-83.80227055 0.22424771 -101.16836828 8.93405184 -115.4140625 25.921875 Z " fill="#FFFFFF" transform="translate(5442,1810)"/>
<path d="M0 0 C0.67160156 0.46921875 1.34320312 0.9384375 2.03515625 1.421875 C14.19722128 10.84124199 19.77279737 24.47758817 23 39 C13.43 39 3.86 39 -6 39 C-7.32 35.7 -8.64 32.4 -10 29 C-15.83554509 19.06111542 -25.13483487 13.27679583 -36 10 C-51.73262993 6.11410342 -69.62570059 7.23341962 -83.7578125 15.640625 C-90.59001269 20.64639543 -95.57947114 26.47682682 -97 35 C-97.18927752 42.42635926 -96.07628377 48.4049719 -91 54 C-77.90891838 66.42900392 -53.61488052 68.54493499 -36.72607422 72.17724609 C-14.6897205 76.94269765 8.42712257 82.02403315 22.4375 101.375 C29.6869418 113.43002078 29.81969405 129.16131524 27.30859375 142.73828125 C26.40660343 145.64804919 25.34950213 148.27138284 24 151 C23.59910156 151.84175781 23.19820312 152.68351562 22.78515625 153.55078125 C14.14008037 169.66319804 -1.92293974 179.74090533 -19 185 C-46.25279094 191.97367991 -76.23728354 191.58797025 -101.11328125 177.19921875 C-103.50799247 175.56034962 -105.76008255 173.84286079 -108 172 C-108.61746094 171.54238281 -109.23492188 171.08476563 -109.87109375 170.61328125 C-123.51975107 160.00441398 -129.68424354 143.34472889 -133 127 C-133 126.34 -133 125.68 -133 125 C-123.43 125 -113.86 125 -104 125 C-103.34 127.413125 -102.68 129.82625 -102 132.3125 C-98.91644573 142.59136289 -93.92141093 151.12618462 -84.46875 156.7265625 C-65.87086224 166.31977676 -46.2413721 167.11656527 -26.3125 161.16796875 C-16.55192151 157.72644402 -8.84429655 153.71447582 -3.625 144.5625 C0.11226805 136.60731787 0.4684867 128.01420612 -2 119.5625 C-5.36728199 112.17977376 -12.85937023 108.07967965 -20 105 C-23.04514019 103.92421601 -26.12767351 103.07169628 -29.25 102.25 C-30.16821533 102.0017749 -31.08643066 101.7535498 -32.0324707 101.49780273 C-39.78860704 99.45625434 -47.60678674 97.76126228 -55.4465332 96.08081055 C-93.52271741 87.91520955 -93.52271741 87.91520955 -108 77 C-108.99193359 76.27876953 -108.99193359 76.27876953 -110.00390625 75.54296875 C-119.11700003 68.39814576 -124.49025324 57.34466849 -126 46 C-127.08214444 29.97593808 -123.11136784 18.02743628 -112.8125 5.8125 C-85.0297852 -23.87824044 -31.37857424 -22.40676128 0 0 Z " fill="#FFFFFF" transform="translate(3695,1803)"/>
<path d="M0 0 C10.10435047 10.63615839 22.30078125 28.12299208 22.30078125 43.421875 C13.06078125 43.421875 3.82078125 43.421875 -5.69921875 43.421875 C-7.16359375 40.493125 -8.62796875 37.564375 -10.13671875 34.546875 C-14.16062102 26.75238318 -18.24994706 20.44525139 -24.69921875 14.421875 C-25.53839844 13.57302734 -25.53839844 13.57302734 -26.39453125 12.70703125 C-37.68596199 1.98835424 -53.05675348 -1.08033366 -68.10253906 -0.9296875 C-82.13008627 -0.50009014 -95.02887143 4.21153648 -105.17578125 14.1015625 C-106.69921875 15.421875 -106.69921875 15.421875 -108.69921875 15.421875 C-108.97378906 16.01226563 -109.24835938 16.60265625 -109.53125 17.2109375 C-110.65130043 19.33116674 -111.86482711 20.95392677 -113.38671875 22.796875 C-128.31321612 42.50423094 -131.76973418 68.43158561 -128.69921875 92.421875 C-125.58359877 111.8511126 -117.80063741 130.79855413 -102.1796875 143.46484375 C-99.73828942 145.22370043 -97.26511334 146.85126195 -94.69921875 148.421875 C-94.06628906 148.82148437 -93.43335937 149.22109375 -92.78125 149.6328125 C-78.21575342 157.89384041 -60.25344648 156.5730033 -44.69921875 152.421875 C-36.53905905 149.78551571 -30.0933214 146.10965236 -23.69921875 140.421875 C-23.0959375 139.92300781 -22.49265625 139.42414063 -21.87109375 138.91015625 C-13.82949027 131.71980359 -9.42370214 120.87084178 -4.69921875 111.421875 C4.54078125 111.421875 13.78078125 111.421875 23.30078125 111.421875 C22.50618435 116.98405328 21.47601053 121.11638801 19.23828125 126.109375 C18.77301025 127.15375732 18.77301025 127.15375732 18.29833984 128.21923828 C13.36385329 138.95784382 6.56486959 148.01100001 -1.69921875 156.421875 C-2.31152344 157.04707031 -2.92382812 157.67226562 -3.5546875 158.31640625 C-21.96723458 175.70821511 -47.69203869 180.12254155 -72.0390625 179.6640625 C-95.28854884 178.88119932 -116.53784642 169.17893893 -132.69921875 152.421875 C-155.26178979 126.59185845 -160.35298484 95.89505928 -158.69921875 62.421875 C-156.56336068 36.33684704 -144.23563096 11.72124883 -124.46484375 -5.37109375 C-88.25196477 -34.26978955 -33.59976426 -31.8950299 0 0 Z " fill="#FFFFFF" transform="translate(4765.69921875,1812.578125)"/>
<path d="M0 0 C9.91173798 10.26231392 21.8125 27.59215041 21.8125 42.3125 C12.2425 42.3125 2.6725 42.3125 -7.1875 42.3125 C-8.8375 38.3525 -10.4875 34.3925 -12.1875 30.3125 C-21.06502431 14.7150686 -33.74433525 4.49484823 -50.9375 -0.625 C-67.08246426 -4.06467281 -84.29959303 -2.00380356 -98.5703125 6.5078125 C-115.37394286 18.09479343 -124.6787955 35.10183707 -128.6640625 54.8293457 C-133.00114725 79.13774903 -130.48471222 105.85721451 -116.8828125 127.0078125 C-113.63866688 131.41805655 -110.02148648 135.41077524 -106.1875 139.3125 C-105.62289062 139.89 -105.05828125 140.4675 -104.4765625 141.0625 C-93.53328665 151.31181201 -78.43139485 154.95990054 -63.8046875 154.6015625 C-46.48476594 153.2174651 -31.98177926 147.8740789 -19.9375 135.0625 C-13.62232679 127.55431665 -9.61980584 119.46531558 -6.1875 110.3125 C3.3825 110.3125 12.9525 110.3125 22.8125 110.3125 C19.31465879 123.13791777 19.31465879 123.13791777 16.0625 129.375 C15.71179443 130.05836426 15.36108887 130.74172852 14.99975586 131.44580078 C12.04755562 137.08369707 8.78032476 142.32510571 4.8125 147.3125 C4.15894531 148.14136719 3.50539063 148.97023438 2.83203125 149.82421875 C-10.96980799 166.24061405 -31.42292524 175.15484701 -52.38671875 177.99609375 C-78.13909067 180.13991916 -104.04417083 176.52684909 -124.609375 159.5859375 C-146.98928922 140.15786522 -157.83283672 113.99760457 -160.0390625 84.74609375 C-161.37727812 53.79105346 -154.1558473 25.24266279 -133.69921875 1.4140625 C-117.59706958 -15.61843307 -96.19257478 -25.29544102 -72.75390625 -26.62109375 C-44.5186701 -27.14683199 -20.83718599 -19.52687214 0 0 Z " fill="#FFFFFF" transform="translate(2854.1875,1813.6875)"/>
<path d="M0 0 C8.91 0 17.82 0 27 0 C27.06802266 16.88252561 27.12315825 33.76493214 27.15543652 50.64755726 C27.17082989 58.48847716 27.19177311 66.32930516 27.22631836 74.17016602 C27.25645375 81.01343422 27.27562952 87.85663579 27.28226548 94.69996852 C27.28613742 98.31515212 27.2950744 101.93014526 27.31719017 105.54526711 C27.48467299 134.06781579 26.56298238 162.62785279 5.6953125 184.4921875 C-13.12082828 201.99937935 -38.35017403 202.91967916 -62.60546875 202.1640625 C-82.2439492 201.21490694 -99.51978741 194.02797773 -113.3125 179.8125 C-131.08922573 158.52477854 -130.3090988 130.1008166 -130.20278788 104.02637982 C-130.19014683 100.39494921 -130.18909962 96.76351404 -130.18673706 93.13206482 C-130.18056108 86.27954353 -130.16420379 79.42708729 -130.14403808 72.57459444 C-130.12155701 64.76303803 -130.11065519 56.95147825 -130.10064721 49.13989747 C-130.07983334 33.09322107 -130.04320669 17.04663411 -130 1 C-121.09 1 -112.18 1 -103 1 C-102.98018066 4.70283203 -102.96036133 8.40566406 -102.93994141 12.22070312 C-102.87281169 24.50217343 -102.79527194 36.78355991 -102.71247292 49.06493378 C-102.66255946 56.50567107 -102.61611605 63.94639852 -102.578125 71.38720703 C-102.5449651 77.88001703 -102.50500582 84.37274536 -102.45720994 90.86546469 C-102.43218067 94.29658167 -102.41033302 97.72764616 -102.39665604 101.15882874 C-103.17254133 135.86687707 -103.17254133 135.86687707 -88.1171875 166.03515625 C-77.92310908 175.44968749 -65.3320596 178.58451443 -51.6875 178.4375 C-50.68565674 178.42920166 -49.68381348 178.42090332 -48.65161133 178.41235352 C-35.12535549 178.10575693 -24.16626386 174.81274595 -14.1953125 165.2734375 C-1.41250976 151.34590616 -0.88491697 131.03749823 -0.79467773 113.18481445 C-0.78477814 111.95425827 -0.77487854 110.72370209 -0.76467896 109.45585632 C-0.73870903 106.11777664 -0.71675906 102.77971808 -0.69667697 99.44160104 C-0.67463138 95.93957363 -0.64733461 92.437587 -0.62062073 88.93559265 C-0.57094251 82.32027874 -0.5259127 75.70494188 -0.48259836 69.08958358 C-0.43301176 61.55135547 -0.37817392 54.01316835 -0.32291877 46.47498 C-0.20948113 30.98335659 -0.10325362 15.49169514 0 0 Z " fill="#FFFFFF" transform="translate(4467,1790)"/>
<path d="M0 0 C52.47 0 104.94 0 159 0 C159 8.25 159 16.5 159 25 C137.22 25 115.44 25 93 25 C93 82.42 93 139.84 93 199 C83.76 199 74.52 199 65 199 C65 141.58 65 84.16 65 25 C43.55 25 22.1 25 0 25 C0 16.75 0 8.5 0 0 Z " fill="#FFFFFF" transform="translate(3812,1790)"/>
<path d="M0 0 C52.47 0 104.94 0 159 0 C159 8.25 159 16.5 159 25 C137.22 25 115.44 25 93 25 C93 82.42 93 139.84 93 199 C84.09 199 75.18 199 66 199 C66 141.58 66 84.16 66 25 C44.22 25 22.44 25 0 25 C0 16.75 0 8.5 0 0 Z " fill="#FFFFFF" transform="translate(4875,1790)"/>
<path d="M0 0 C8.91 0 17.82 0 27 0 C27 65.67 27 131.34 27 199 C18.09 199 9.18 199 0 199 C0 133.33 0 67.66 0 0 Z " fill="#FFFFFF" transform="translate(5141,1790)"/>
</svg>
